<svg id="Layer_1" data-name="Layer 1" xmlns="http://www.w3.org/2000/svg" viewBox="0 0 1014 988.74"><defs><style>.cls-1,.cls-3{fill:#e31624;}.cls-1{fill-rule:evenodd;}.cls-2{fill:none;stroke-width:10px;}.cls-2,.cls-3{stroke:#000;stroke-miterlimit:10;}.cls-3{isolation:isolate;font-size:229.32px;stroke-width:7px;font-family:Arial-BoldMT, Arial;font-weight:700;}</style></defs><path class="cls-1" d="M666,988.74c-14.81,0-16-11.71-16-15.3,0-5.74.07-15.51.17-29,.18-26.34.47-66.16.47-111.78,0-43.2-12.16-70.63-24.28-87.24,101.11-14.68,223.32-61.93,223.32-260.28,0-53.54-17.17-100.53-51-139.76,7.06-20.86,18.71-72.25-7.28-137.23l-1.74-4.34-4.43-1.45c-.89-.29-5.77-1.74-14.81-1.74-19.49,0-62.16,6.94-130.89,52.86a493.45,493.45,0,0,0-252.47,0c-69.23-45.82-112-52.75-131.46-52.75-8.59,0-13.23,1.32-14.08,1.59L237,203.72l-1.76,4.41c-26,65-14.35,116.38-7.28,137.23-33.42,38.81-51,87-51,139.76,0,198.42,121.89,245.64,222.74,260.29-10.5,14.5-17.9,33-21.47,54C367,804,348.91,809.81,328.91,809.81c-34.52,0-62.19-17.08-82.24-50.76l-.11-.19c-8.38-13.42-39.38-57.19-86.19-57.19H159.2c-7.2.11-29.12.44-32.84,15.74-4.38,18,23,33.83,28.83,37,18,10.13,42,52,47.92,67,11.82,33.08,42.92,72.43,124,72.43a313.9,313.9,0,0,0,47.59-3.94c.06,23.78.28,46.23.44,61.83.1,9.79.18,17.53.18,21.7,0,4.54-1.62,15.11-16.6,15.11a39.1,39.1,0,0,1-6.17-.52A503.54,503.54,0,0,1,106.78,808.49C43.47,722.16,10,619.64,10,512A502.14,502.14,0,0,1,974.57,316.55a503.1,503.1,0,0,1-57.2,491.71A505.06,505.06,0,0,1,809.09,917a497.9,497.9,0,0,1-136.44,71.11,37.22,37.22,0,0,1-6.69.67Z" transform="translate(-5 -5)"/><path class="cls-2" d="M666,988.74c-14.81,0-16-11.71-16-15.3,0-5.74.07-15.51.17-29,.18-26.34.47-66.16.47-111.78,0-43.2-12.16-70.63-24.28-87.24,101.11-14.68,223.32-61.93,223.32-260.28,0-53.54-17.17-100.53-51-139.76,7.06-20.86,18.71-72.25-7.28-137.23l-1.74-4.34-4.43-1.45c-.89-.29-5.77-1.74-14.81-1.74-19.49,0-62.16,6.94-130.89,52.86a493.45,493.45,0,0,0-252.47,0c-69.23-45.82-112-52.75-131.46-52.75-8.59,0-13.23,1.32-14.08,1.59L237,203.72l-1.76,4.41c-26,65-14.35,116.38-7.28,137.23-33.42,38.81-51,87-51,139.76,0,198.42,121.89,245.64,222.74,260.29-10.5,14.5-17.9,33-21.47,54C367,804,348.91,809.81,328.91,809.81c-34.52,0-62.19-17.08-82.24-50.76l-.11-.19c-8.38-13.42-39.38-57.19-86.19-57.19H159.2c-7.2.11-29.12.44-32.84,15.74-4.38,18,23,33.83,28.83,37,18,10.13,42,52,47.92,67,11.82,33.08,42.92,72.43,124,72.43a313.9,313.9,0,0,0,47.59-3.94c.06,23.78.28,46.23.44,61.83.1,9.79.18,17.53.18,21.7,0,4.54-1.62,15.11-16.6,15.11a39.1,39.1,0,0,1-6.17-.52A503.54,503.54,0,0,1,106.78,808.49C43.47,722.16,10,619.64,10,512A502.14,502.14,0,0,1,974.57,316.55a503.1,503.1,0,0,1-57.2,491.71A505.06,505.06,0,0,1,809.09,917a497.9,497.9,0,0,1-136.44,71.11,37.22,37.22,0,0,1-6.69.67Z" transform="translate(-5 -5)"/><text class="cls-3" transform="translate(277.68 589.2)">PDF</text></svg>